Coordinates
version=1
nRows=29
nColumns=24
inDegrees=yes

Units are S.I. units (second, meters, Newtons, ...)
Angles are in degrees.

endheader
time	pelvis_tilt	pelvis_list	pelvis_rotation	pelvis_tx	pelvis_ty	pelvis_tz	hip_flexion_r	hip_adduction_r	hip_rotation_r	knee_angle_r	ankle_angle_r	subtalar_angle_r	mtp_angle_r	hip_flexion_l	hip_adduction_l	hip_rotation_l	knee_angle_l	ankle_angle_l	subtalar_angle_l	mtp_angle_l	lumbar_extension	lumbar_bending	lumbar_rotation
      3.19000000	     -8.61910390	     -5.80889960	      4.53921284	     -1.59131827	     -0.03006167	      0.67809363	     27.53186975	      4.69504101	     -0.71473669	    -32.68267625	      4.55264920	     -1.97744430	     16.34250459	     20.57830994	     -5.69729178	      1.49266794	    -67.61667981	    -22.11230076	      5.63999624	     32.14846119	      6.75933337	     13.06032980	     -5.74096766
      3.19500000	     -8.65293829	     -5.96759119	      4.50997815	     -1.58413385	     -0.02886968	      0.67858323	     26.80855486	      4.92479007	     -0.81366959	    -32.12188789	      4.81038275	     -1.91619383	     16.04901939	     21.69844914	     -5.84641089	      1.35255840	    -68.49821338	    -21.77615215	      5.40766150	     32.08179582	      6.82050495	     13.22302958	     -5.55981120
      3.20000000	     -8.65601667	     -5.98738517	      4.32423869	     -1.57694975	     -0.02762931	      0.67924281	     26.04598083	      5.10104796	     -0.66279907	    -31.58942411	      5.15737442	     -1.76629996	     15.57638731	     22.70964214	     -5.92311760	      0.96202194	    -69.28827893	    -21.30801653	      4.99583695	     31.18716832	      6.79648353	     13.26467009	     -5.21951036
      3.20500000	     -8.65406784	     -6.03602772	      4.18162793	     -1.56976339	     -0.02633844	      0.67985232	     25.24298193	      5.29423558	     -0.52916946	    -30.96850752	      5.36508730	     -1.77806468	     15.33035633	     23.70739719	     -6.01544718	      0.63600656	    -69.96652684	    -20.95547273	      4.49856850	     30.51712839	      6.78288113	     13.32910120	     -4.92339694
      3.21000000	     -8.63798077	     -6.08808492	      4.06584696	     -1.56261542	     -0.02504560	      0.68044475	     24.41173205	      5.47711055	     -0.42745709	    -30.30937631	      5.54010493	     -1.80895201	     15.24745030	     24.67324807	     -6.10450913	      0.36478579	    -70.51892314	    -20.76150328	      3.99313535	     30.41808249	      6.75666013	     13.39133181	     -4.66900432
      3.21500000	     -8.65053668	     -6.07705283	      3.88580391	     -1.55545269	     -0.02379958	      0.68109269	     23.60317988	      5.64205303	     -0.14016766	    -29.66680365	      5.73915111	     -1.89922127	     14.76698517	     25.63531008	     -6.14730208	     -0.00663532	    -71.05321320	    -20.13446415	      3.55976338	     29.11270742	      6.74552751	     13.39173832	     -4.34232672
      3.22000000	     -8.65240865	     -6.08906561	      3.77570213	     -1.54832587	     -0.02253939	      0.68167159	     22.76925874	      5.79303689	      0.04737791	    -28.96996883	      5.83748885	     -2.05854200	     14.59309627	     26.57275204	     -6.18181648	     -0.25490000	    -71.42540575	    -19.86909208	      3.07622998	     28.96951741	      6.73525535	     13.40636519	     -4.08949308
      3.22500000	     -8.65775956	     -6.01591065	      3.59158552	     -1.54113048	     -0.02128994	      0.68240736	     21.92282650	      5.91458746	      0.45223961	    -28.28427013	      5.98055475	     -2.29325884	     14.06701543	     27.45779634	     -6.16846680	     -0.58929560	    -71.73866837	    -19.29685481	      2.83743892	     28.11894927	      6.71546223	     13.32685585	     -3.79574805
      3.23000000	     -8.66966641	     -5.99864626	      3.44452076	     -1.53401539	     -0.02014218	      0.68302959	     21.09754364	      6.04868520	      0.71730394	    -27.58794852	      6.06462141	     -2.49046644	     13.81061861	     28.35423544	     -6.19284076	     -0.85629811	    -71.96090209	    -18.92508274	      2.45191633	     27.92887618	      6.70113069	     13.31156493	     -3.51172812
      3.23500000	     -8.68391586	     -5.89283197	      3.25133128	     -1.52687804	     -0.01898824	      0.68380065	     20.26575001	      6.13363498	      1.15628993	    -26.89764505	      6.12441859	     -2.82752583	     13.41708732	     29.19660369	     -6.14918965	     -1.15883507	    -72.08384647	    -18.46116902	      2.25457434	     27.61179143	      6.67300964	     13.19133189	     -3.20465253
      3.24000000	     -8.69203894	     -5.77938623	      3.06120820	     -1.51973778	     -0.01789364	      0.68454459	     19.43055734	      6.20021254	      1.59405871	    -26.21693242	      6.20651094	     -3.12321497	     12.95949492	     30.01203965	     -6.09860205	     -1.45372877	    -72.13796740	    -17.97498009	      2.07505281	     27.24433381	      6.63538772	     13.06412870	     -2.89853747
      3.24500000	     -8.67712297	     -5.66630494	      2.90552167	     -1.51262957	     -0.01688596	      0.68519201	     18.58450510	      6.23972935	      1.98758336	    -25.58196563	      6.47389022	     -3.20273492	     12.06994956	     30.80168419	     -6.02514988	     -1.70835078	    -72.16684180	    -17.30466657	      1.98413418	     26.35652428	      6.57286334	     12.93699297	     -2.62864434
      3.25000000	     -8.72130796	     -5.50754006	      2.68406683	     -1.50550562	     -0.01592451	      0.68598868	     17.80230091	      6.25303066	      2.45695943	    -24.91989539	      6.50240903	     -3.53368876	     11.73738116	     31.59562547	     -5.94840936	     -2.02233937	    -72.04065938	    -16.90227234	      1.79481017	     26.21779013	      6.56068560	     12.75674068	     -2.32062688
      3.25500000	     -8.73749452	     -5.33002582	      2.46636052	     -1.49843430	     -0.01503896	      0.68680894	     17.00273593	      6.24709500	      2.95240216	    -24.28265067	      6.57203021	     -3.89318647	     11.32557524	     32.34076203	     -5.85663759	     -2.32803098	    -71.85168452	    -16.43611904	      1.65818704	     25.95507557	      6.50093482	     12.55122299	     -1.98998378
      3.26000000	     -8.74957385	     -5.14112314	      2.23661543	     -1.49135986	     -0.01420291	      0.68762904	     16.20180274	      6.22355238	      3.47558921	    -23.65563388	      6.64804606	     -4.22171737	     10.81365571	     33.05604055	     -5.76427049	     -2.64536004	    -71.59267251	    -15.93783632	      1.54299302	     25.49945670	      6.43209132	     12.33430193	     -1.64599728
      3.26500000	     -8.74968990	     -4.95375785	      2.07144509	     -1.48425081	     -0.01344009	      0.68829906	     15.39291748	      6.16051828	      3.89507131	    -23.05666034	      6.85813842	     -4.36702364	      9.87952557	     33.75473976	     -5.63182297	     -2.91244249	    -71.30788154	    -15.21953268	      1.51377148	     24.28412387	      6.36901800	     12.11424114	     -1.40334829
      3.27000000	     -8.80972774	     -4.73161880	      1.80964894	     -1.47723048	     -0.01281022	      0.68914877	     14.67045369	      6.08355727	      4.42193894	    -22.46310599	      6.90464233	     -4.69139629	      9.59864959	     34.46901165	     -5.53204502	     -3.26327395	    -70.88168603	    -14.82963037	      1.33979113	     23.97212989	      6.33304915	     11.86062819	     -1.03494426
      3.27500000	     -8.80843200	     -4.51751725	      1.54909106	     -1.47018084	     -0.01217492	      0.68998904	     13.87133565	      6.00969129	      4.97987326	    -21.85661518	      6.96080485	     -4.99519098	      9.13726178	     35.09141224	     -5.45374306	     -3.61775090	    -70.40325905	    -14.30793529	      1.24489264	     23.22291227	      6.23107823	     11.61616545	     -0.68695853
      3.28000000	     -8.83298897	     -4.28732516	      1.30885971	     -1.46314132	     -0.01165936	      0.69075425	     13.11473838	      5.89008230	      5.46662680	    -21.27556079	      7.07195082	     -5.21029220	      8.64211765	     35.72486219	     -5.34332133	     -3.96046692	    -69.86995961	    -13.74021522	      1.15472004	     22.20709633	      6.15940090	     11.35380124	     -0.36905755
      3.28500000	     -8.85820935	     -4.09408657	      1.16549556	     -1.45611306	     -0.01129816	      0.69133435	     12.37180338	      5.76316375	      5.77266161	    -20.71326156	      7.26600410	     -5.33156165	      8.04736049	     36.37076385	     -5.19748042	     -4.18693943	    -69.32478850	    -12.98358587	      1.15432828	     20.70477437	      6.10629493	     11.12013573	     -0.15184534
      3.29000000	     -8.92181015	     -3.86572711	      0.88751835	     -1.44914899	     -0.01100389	      0.69211630	     11.68357115	      5.62452410	      6.24552929	    -20.15315679	      7.34058285	     -5.51137679	      7.85768366	     36.99512136	     -5.11749839	     -4.53353880	    -68.62879884	    -12.62434462	      1.01513853	     20.22069126	      6.05890214	     10.86254274	      0.19493842
      3.29500000	     -8.93470743	     -3.64808977	      0.63720154	     -1.44216988	     -0.01074694	      0.69284697	     10.93663297	      5.48201997	      6.68894647	    -19.58573548	      7.42201771	     -5.70155380	      7.58429574	     37.54488649	     -5.03371587	     -4.84442237	    -67.89115820	    -12.12714567	      0.97160163	     19.38798804	      5.96102970	     10.61294586	      0.50744626
      3.30000000	     -8.97128500	     -3.44117147	      0.40018549	     -1.43521299	     -0.01062820	      0.69350643	     10.23001928	      5.32856207	      7.06328818	    -19.03766295	      7.53304382	     -5.83486760	      7.34860973	     38.10572162	     -4.94370763	     -5.11986488	    -67.10497853	    -11.60518363	      0.95967385	     18.49869070	      5.89002323	     10.37666293	      0.80532990
      3.30500000	     -9.09600443	     -3.27538779	      0.28360536	     -1.42825807	     -0.01074736	      0.69398225	      9.62969383	      5.17524729	      7.22605923	    -18.49673527	      7.66318909	     -5.92268699	      7.29234351	     38.76603055	     -4.79177707	     -5.20143978	    -66.24115566	    -11.27737699	      0.99957316	     18.32158505	      5.94350010	     10.16764571	      0.93976613
      3.31000000	     -9.06938361	     -3.10968591	      0.01314414	     -1.42130577	     -0.01076027	      0.69459911	      8.86197711	      5.05157030	      7.60691381	    -17.95898219	      7.78854467	     -6.00207589	      6.96081129	     39.21963447	     -4.76446283	     -5.49430436	    -65.40857318	    -10.40318947	      1.10454550	     16.42169338	      5.79276938	      9.98445795	      1.28226439
      3.31500000	     -9.18351328	     -2.96091357	     -0.14659413	     -1.41436606	     -0.01103579	      0.69508732	      8.25891751	      4.91129385	      7.82769940	    -17.43039714	      7.91872144	     -6.05353105	      6.94616635	     39.80947712	     -4.65350948	     -5.57396403	    -64.41813823	    -10.12174906	      1.17549735	     16.36311540	      5.82459921	      9.79966540	      1.44335590
      3.32000000	     -9.12393108	     -2.78882466	     -0.44409662	     -1.40745967	     -0.01113747	      0.69578481	      7.46160594	      4.77353575	      8.25220940	    -16.88278252	      7.97054600	     -6.19576798	      6.84678545	     40.14524651	     -4.63842503	     -5.81682665	    -63.36172418	     -9.71179709	      1.27159497	     15.93286778	      5.62345978	      9.60315466	      1.80432280
      3.32500000	     -9.13411075	     -2.64317939	     -0.65090459	     -1.40052791	     -0.01145546	      0.69632103	      6.74689725	      4.63582826	      8.53805950	    -16.35177578	      8.08971622	     -6.29086990	      6.73970805	     40.55286304	     -4.56253418	     -5.91937122	    -62.26850789	     -9.25861086	      1.43830247	     15.43843213	      5.52631645	      9.42322251	      2.06057165
      3.33000000	     -9.26373358	     -2.54127122	     -0.78035732	     -1.39357263	     -0.01201660	      0.69671807	      6.16701970	      4.52045264	      8.68893399	    -15.82969730	      8.22816749	     -6.31213366	      6.70480890	     41.08653118	     -4.45849734	     -5.88907923	    -61.11720450	     -8.96815434	      1.59089278	     15.31326520	      5.58176931	      9.28155631	      2.16473517
